<svg id="レイヤー_1" data-name="レイヤー 1" xmlns="http://www.w3.org/2000/svg" viewBox="0 0 199.06 207.84"><defs><style>.cls-1{fill:#fff;}</style></defs><path class="cls-1" d="M71.57,208.89c14.68.38,10.33-3.28,21.07-11,4.77-3.42,19-9.58,25.93-6,8.41,4.33,13.53,17,26.24,15.44,11.81-1.47,22.56-15.41,22.66-37,0-19.48-15.9-27.77-26.9-32.48-6.47-16.29-4-33.53-43.63-30.9-30.6,2-32.8,38.44-35.09,42.11S37.45,158,43.39,176.39C49.55,195.49,60.71,208.61,71.57,208.89Z" transform="translate(-5.47 -1.08)"/><path class="cls-1" d="M7.37,117.88C11,137,50.59,156.29,44.18,108.46,36.7,52.64-3.68,59.69,7.37,117.88Z" transform="translate(-5.47 -1.08)"/><path class="cls-1" d="M156.41,104.57c-4.59,22.76,30.58,66.41,45.33,11S168.54,44.48,156.41,104.57Z" transform="translate(-5.47 -1.08)"/><path class="cls-1" d="M39.09,53.4c6.23,30.5,42.65,65.22,47-1.91S26.52-8.12,39.09,53.4Z" transform="translate(-5.47 -1.08)"/><path class="cls-1" d="M108.45,44.54c0,30.33,27.58,70.22,44.38,6.76S108.37-16.65,108.45,44.54Z" transform="translate(-5.47 -1.08)"/></svg>